<svg width="64" height="64" viewBox="0 0 64 64" fill="none" xmlns="http://www.w3.org/2000/svg">
<rect width="64" height="64" rx="32" fill="#282664" fill-opacity="0.1"/>
<path d="M36.7866 32.5333V37.96C36.7866 38.44 36.7333 38.8933 36.6133 39.3067C36.12 41.2667 34.4933 42.4933 32.2533 42.4933H28.6266L24.6 45.1733C24 45.5867 23.2 45.1467 23.2 44.4267V42.4933C21.84 42.4933 20.7066 42.04 19.92 41.2533C19.12 40.4533 18.6666 39.32 18.6666 37.96V32.5333C18.6666 30 20.24 28.2533 22.6666 28.0267C22.84 28.0133 23.0133 28 23.2 28H32.2533C34.9733 28 36.7866 29.8133 36.7866 32.5333Z" fill="white"/>
<path d="M39.6666 36.8001C41.36 36.8001 42.7866 36.2401 43.7733 35.2401C44.7733 34.2534 45.3333 32.8267 45.3333 31.1334V24.3334C45.3333 21.2001 42.8 18.6667 39.6666 18.6667H28.3333C25.2 18.6667 22.6666 21.2001 22.6666 24.3334V25.3334C22.6666 25.7067 22.96 26.0001 23.3333 26.0001H32.2533C35.8666 26.0001 38.7866 28.9201 38.7866 32.5334V36.1334C38.7866 36.5067 39.08 36.8001 39.4533 36.8001H39.6666Z" fill="white"/>
</svg>
