<svg width="24" height="19" viewBox="0 0 24 19" fill="none" xmlns="http://www.w3.org/2000/svg">
<path fill-rule="evenodd" clip-rule="evenodd" d="M1.64935 8.17938C8.08963 5.49803 12.3842 3.7303 14.5329 2.87629C20.6682 0.43779 21.943 0.0141659 22.7739 0.00014677C22.9567 -0.00290445 23.3653 0.0403903 23.63 0.245646C24.0226 0.550108 24.0249 1.21098 23.9813 1.64838C23.6488 4.98658 22.2102 13.0874 21.4783 16.8262C21.1686 18.4082 20.5588 18.9387 19.9685 18.9906C18.6856 19.1034 17.7114 18.1804 16.4688 17.4021C14.5245 16.184 13.426 15.4259 11.5386 14.2374C9.35743 12.8638 10.7714 12.1089 12.0144 10.8752C12.3398 10.5523 17.9923 5.63912 18.1018 5.1934C18.1155 5.13765 18.1282 4.92984 17.999 4.82016C17.8698 4.71048 17.6792 4.74792 17.5416 4.77777C17.3466 4.82008 14.2404 6.78201 8.22305 10.6635C7.34135 11.2421 6.54275 11.5239 5.82726 11.5092C5.03842 11.4929 3.52114 11.083 2.39315 10.7326C1.00963 10.3029 -0.0899731 10.0756 0.00581696 9.34577C0.0556968 8.96552 0.603512 8.57678 1.64935 8.17938Z" fill="white"/>
</svg>
